<?xml version="1.0" encoding="UTF-8"?>
<svg width="332px" height="250px" viewBox="0 0 332 250" version="1.1" xmlns="http://www.w3.org/2000/svg" xmlns:xlink="http://www.w3.org/1999/xlink">
    <!-- Generator: Sketch 48.1 (47250) - http://www.bohemiancoding.com/sketch -->
    <title>Combined Shape</title>
    <desc>Created with Sketch.</desc>
    <defs></defs>
    <g id="Escritorio-v2" stroke="none" stroke-width="1" fill="none" fill-rule="evenodd">
        <path d="M245.177034,71.1898699 C247.754223,68.2169384 250.483399,66.1570589 253.112,64.854 C256.46,63.164 259.411,62.758 261.225,62.722 C261.38,62.713 261.535,62.699 261.692,62.699 L264.688,62.699 L264.688,86.55 L263.282,86.55 L253.964,131.666 L253.964,119.879 L253.964,86.821 C250.496,93.921 246.966,107.524 247.001,131.737 C247.001,137.25 247.178,143.308 247.57,149.958 C247.710699,152.36406 246.773618,154.583353 245.177034,156.14635 L245.177034,159.941048 C245.177034,172.085377 235.306113,181.96733 223.175342,181.96733 L22.0016916,181.96733 C9.87092045,181.96733 5.9559365e-15,172.085377 0,159.941048 L0,22.0262815 C0,9.88195255 9.87092045,0 22.0016916,0 L223.175342,0 C235.306113,0 245.177034,9.88195255 245.177034,22.0262815 L245.177034,71.1898699 Z M238.890357,81.2841167 L238.890357,44.0559196 L6.28332368,44.0559196 L6.28332368,159.941048 C6.28332368,168.621323 13.3311072,175.676984 22.0016916,175.676984 L223.171989,175.676984 C231.839221,175.676984 238.890357,168.617966 238.890357,159.941048 L238.890357,158.39972 C234.995539,158.06585 231.831331,154.914585 231.596,150.896 C231.188,143.96 231,137.592 231,131.738 C231.015,109.08 233.773,94.073 237.878,83.694 C238.204543,82.8617463 238.542371,82.0586844 238.890357,81.2841167 Z M22.0016916,6.2937028 C13.3311072,6.2937028 6.28332368,13.3493632 6.28332368,22.0296381 L6.28332368,37.7655734 L238.89371,37.7655734 L238.89371,22.0296381 C238.89371,13.3493632 231.842574,6.2937028 223.175342,6.2937028 L22.0016916,6.2937028 Z M28.2528222,28.7316836 C24.8147403,28.7316836 22.0276241,25.9445675 22.0276241,22.5064855 C22.0276241,19.0684035 24.8147403,16.2812874 28.2528222,16.2812874 C31.6909042,16.2812874 34.4780204,19.0684035 34.4780204,22.5064855 C34.4780204,25.9445675 31.6909042,28.7316836 28.2528222,28.7316836 Z M53.1536147,28.7316836 C49.7155327,28.7316836 46.9284166,25.9445675 46.9284166,22.5064855 C46.9284166,19.0684035 49.7155327,16.2812874 53.1536147,16.2812874 C56.5916967,16.2812874 59.3788128,19.0684035 59.3788128,22.5064855 C59.3788128,25.9445675 56.5916967,28.7316836 53.1536147,28.7316836 Z M78.0544072,28.7316836 C74.6163252,28.7316836 71.8292091,25.9445675 71.8292091,22.5064855 C71.8292091,19.0684035 74.6163252,16.2812874 78.0544072,16.2812874 C81.4924892,16.2812874 84.2796053,19.0684035 84.2796053,22.5064855 C84.2796053,25.9445675 81.4924892,28.7316836 78.0544072,28.7316836 Z M147.221787,115.884457 C148.956198,115.884457 150.362478,117.311167 150.362478,119.07838 L150.362478,131.84726 C150.362478,138.885467 144.730664,144.616141 137.806412,144.616141 C130.878812,144.616141 125.250346,138.885467 125.250346,131.84726 L125.250346,122.272303 L96.9975238,122.272303 C95.2597643,122.272303 93.8568332,120.845593 93.8568332,119.07838 C93.8568332,117.311167 95.2597643,115.884457 96.9975238,115.884457 L147.221787,115.884457 Z M137.806412,138.231701 C141.261841,138.231701 144.081096,135.368066 144.084445,131.84726 L144.084445,122.272303 L131.528379,122.272303 L131.528379,131.84726 C131.528379,135.371471 134.347634,138.231701 137.806412,138.231701 Z M82.3411744,102.501006 C81.0948578,101.251256 81.0948578,99.2319059 82.3411744,97.9855616 L86.4683211,93.8583232 L82.3411744,89.7310849 C81.0948578,88.4813353 81.0948578,86.4619852 82.3411744,85.2156409 C83.587491,83.9692967 85.6102015,83.9692967 86.8565181,85.2156409 L90.9836648,89.3428793 L95.1108116,85.2156409 C96.3571282,83.9692967 98.3798387,83.9658914 99.6261553,85.2156409 C100.872472,86.4653905 100.872472,88.4847406 99.6261553,89.7310849 L95.4956033,93.8583232 L99.6261553,97.9855616 C100.872472,99.2353112 100.872472,101.254661 99.6261553,102.501006 C98.9995917,103.124178 98.1857402,103.434061 97.3684834,103.434061 C96.5512266,103.434061 95.7373751,103.124178 95.1108116,102.501006 L90.9836648,98.3737672 L86.8565181,102.501006 C86.2299546,103.124178 85.416103,103.434061 84.5988463,103.434061 C83.7815895,103.434061 82.9677379,103.124178 82.3411744,102.501006 Z M144.593197,102.500943 C143.346825,101.25111 143.346825,99.2316256 144.593197,97.9851982 L148.720527,93.8576846 L144.593197,89.730171 C143.346825,88.480338 143.346825,86.4608532 144.593197,85.2144259 C145.839569,83.9679985 147.86237,83.9679985 149.105336,85.2144259 L153.236072,89.3419395 L157.363402,85.2144259 C158.609774,83.9679985 160.632574,83.9679985 161.875541,85.2144259 C163.125318,86.4642588 163.125318,88.4837436 161.875541,89.730171 L157.748211,93.8576846 L161.875541,97.9851982 C163.125318,99.2350311 163.125318,101.254516 161.875541,102.500943 C161.252355,103.124157 160.435062,103.434061 159.621174,103.434061 C158.803881,103.434061 157.986588,103.124157 157.363402,102.500943 L153.236072,98.3734297 L149.105336,102.500943 C148.48215,103.124157 147.664857,103.434061 146.850969,103.434061 C146.033676,103.434061 145.216383,103.124157 144.593197,102.500943 Z M269.354,86.55 L269.354,62.699 L292.667,62.699 L292.667,86.55 L281.011,86.55 L269.354,86.55 Z M297.335,86.55 L297.334,86.55 L297.334,62.701 L300.326,62.701 C300.49,62.701 300.65,62.715 300.811,62.725 C302.627,62.763 305.565,63.172 308.901,64.855 C312.453,66.625 316.295,69.823 319.58,74.81 C326.155,84.854 330.974,101.558 331.015,131.739 C331.013,137.595 330.826,143.96 330.424,150.895 C330.177,155.147 326.649,158.43 322.442,158.43 C322.286,158.43 322.128,158.425 321.971,158.416 C317.56,158.157 314.192,154.373 314.451,149.963 C314.837,143.309 315.015,137.252 315.013,131.738 C315.023,111.731 312.652,98.914 309.833,91.101 C309.245,89.475 308.647,88.081 308.055,86.866 L308.055,119.88 L308.055,131.658 L298.739,86.55 L297.335,86.55 Z M253.964,236.819 L253.964,181.1 C258.759,182.982 268.501,186.286 278.692,186.743 L278.692,236.819 C278.692,243.649 273.155,249.182 266.327,249.182 C259.501,249.182 253.964,243.649 253.964,236.819 Z M283.327,236.819 L283.327,186.743 C293.517,186.287 303.258,182.983 308.055,181.101 L308.055,236.819 C308.055,243.649 302.518,249.182 295.69,249.182 C288.864,249.182 283.327,243.649 283.327,236.819 Z M281.011,57 C268.584593,57 258.511,46.9264069 258.511,34.5 C258.511,22.0735931 268.584593,12 281.011,12 C293.437407,12 303.511,22.0735931 303.511,34.5 C303.511,46.9264069 293.437407,57 281.011,57 Z M297.627107,113.273804 C297.627107,122.261501 290.323203,129.547609 281.313554,129.547609 C272.303904,129.547609 265,122.261501 265,113.273804 C265,104.286108 272.303904,97 281.313554,97 C290.323203,97 297.627107,104.286108 297.627107,113.273804 Z M288.654653,112.460114 L282.129231,112.460114 L282.129231,103.509522 C282.129231,103.060039 281.764134,102.695832 281.313554,102.695832 C280.862973,102.695832 280.497876,103.060039 280.497876,103.509522 L280.497876,112.460114 L273.972454,112.460114 C273.071294,112.460114 272.341099,113.18853 272.341099,114.087495 L272.341099,120.597016 C272.341099,121.495981 273.071294,122.224397 273.972454,122.224397 L288.654653,122.224397 C289.555813,122.224397 290.286008,121.495981 290.286008,120.597016 L290.286008,114.087495 C290.286008,113.18853 289.555813,112.460114 288.654653,112.460114 Z M282.944909,111.646424 L283.597451,111.646424 L285.391942,109.042615 C286.044484,108.066187 286.697026,108.066187 286.697026,108.066187 C286.697026,108.066187 286.370755,107.089759 285.881349,107.089759 C285.392268,107.089759 285.391942,107.415235 284.902535,107.415235 C284.413455,107.415235 284.413129,107.089759 283.923722,107.089759 C283.434642,107.089759 282.944909,107.740711 282.944909,109.205353 L282.944909,111.646424 Z M279.682198,109.693567 C278.601262,109.693567 277.724572,110.568122 277.724572,111.646424 L279.682198,111.646424 L279.682198,109.693567 Z M284.249993,111.646424 L284.249993,111.646749 L289.182233,111.646749 C290.101012,110.301882 288.88761,109.482333 290.266106,107.465358 C291.092876,106.254913 291.184885,106.120491 291.184885,106.120491 L290.241309,105.478652 C290.241309,105.478652 290.057618,105.747495 289.32253,106.823519 C287.944034,108.840495 286.730632,108.015413 285.811853,109.36028 L284.249993,111.646424 Z M277.235165,111.646424 C277.235165,111.016628 277.47628,110.444441 277.868784,110.011558 C277.510864,109.617406 276.99503,109.368091 276.419488,109.368091 C275.338551,109.368091 274.461861,110.242646 274.461861,111.320948 C274.461861,111.432261 274.473281,111.540319 274.491225,111.646424 L277.235165,111.646424 Z M279.682198,108.401753 C279.335698,108.092225 278.878919,107.903449 278.377114,107.903449 C277.647246,107.903449 277.011669,108.302808 276.674958,108.893547 C277.290631,108.957666 277.837135,109.250269 278.231271,109.683803 C278.637478,109.384365 279.138304,109.205028 279.682198,109.205028 L279.682198,108.401753 Z M292.733041,110.019043 C292.243634,109.530829 290.93855,109.205353 290.122873,109.693567 C290.247508,110.438257 290.180949,111.276683 289.781267,111.921777 C290.33658,112.209823 290.766279,112.70357 290.970198,113.302446 C291.770541,112.879327 292.733041,112.103067 292.733041,111.646424 C292.733041,110.995472 291.917363,110.832734 292.733041,110.019043 Z M274.208022,110.281377 C273.65695,110.143701 272.359697,109.820178 271.851693,109.693567 C270.699629,109.406172 271.362286,108.391663 271.362286,108.391663 C271.362286,108.391663 271.19915,107.903449 270.383473,107.903449 C269.730931,107.903449 269.404659,108.717139 269.404659,108.717139 C269.404659,108.717139 268.425846,108.859698 268.425846,109.530829 C268.425846,110.34452 268.915253,110.34452 268.915253,110.34452 C268.915253,110.34452 269.078388,111.320948 269.730931,111.320948 C270.383473,111.320948 271.19915,110.507258 272.341099,110.507258 C272.917294,110.507258 273.65434,110.669345 274.038687,110.764709 C274.078166,110.595787 274.13559,110.434351 274.208022,110.281377 Z M273.972454,111.320948 C273.972454,111.292957 273.975717,111.265617 273.976696,111.237626 C273.578972,111.141285 272.887603,110.995472 272.341099,110.995472 C271.19915,110.995472 270.057202,111.809162 270.057202,112.460114 C270.057202,112.948328 270.709744,112.948328 270.709744,112.948328 C270.709744,112.948328 271.688557,111.9719 272.504235,111.809162 C273.117624,111.686783 273.730688,111.656514 273.996925,111.649028 C273.982569,111.541295 273.972454,111.432586 273.972454,111.320948 Z M274.466755,109.854353 C274.833158,109.369719 275.374768,109.026667 275.998924,108.918283 C275.648509,108.343818 275.894191,107.065673 275.440674,106.764283 C275.440674,106.764283 275.114403,106.927021 274.788132,106.927021 C274.461861,106.927021 274.298726,106.601545 273.972454,106.601545 C273.646183,106.601545 273.483048,106.927021 273.156777,106.927021 C272.830506,106.927021 272.341099,106.601545 272.014828,106.601545 C271.688557,106.601545 271.362286,106.764283 271.362286,107.252497 C271.362286,107.903449 271.851693,108.391663 271.851693,108.391663 C271.851693,108.391663 271.362286,109.042615 271.851693,109.205353 C272.504235,109.368091 274.461861,109.856305 274.461861,109.856305 C274.461861,109.856305 274.463819,109.855654 274.466755,109.854353 Z" id="Combined-Shape" fill="#B4B4B4" fill-rule="nonzero"></path>
    </g>
</svg>